<?xml version="1.0" encoding="utf-8" standalone="no"?>
<!DOCTYPE svg PUBLIC "-//W3C//DTD SVG 1.1//EN"
  "http://www.w3.org/Graphics/SVG/1.1/DTD/svg11.dtd">
<svg xmlns:xlink="http://www.w3.org/1999/xlink" width="720pt" height="720pt" viewBox="0 0 720 720" xmlns="http://www.w3.org/2000/svg" version="1.1">
 <metadata>
  <rdf:RDF xmlns:dc="http://purl.org/dc/elements/1.1/" xmlns:cc="http://creativecommons.org/ns#" xmlns:rdf="http://www.w3.org/1999/02/22-rdf-syntax-ns#">
   <cc:Work>
    <dc:type rdf:resource="http://purl.org/dc/dcmitype/StillImage"/>
    <dc:date>2025-01-31T16:15:06.969316</dc:date>
    <dc:format>image/svg+xml</dc:format>
    <dc:creator>
     <cc:Agent>
      <dc:title>Matplotlib v3.10.0, https://matplotlib.org/</dc:title>
     </cc:Agent>
    </dc:creator>
   </cc:Work>
  </rdf:RDF>
 </metadata>
 <defs>
  <style type="text/css">*{stroke-linejoin: round; stroke-linecap: butt}</style>
 </defs>
 <g id="figure_1">
  <g id="patch_1">
   <path d="M 0 720 
L 720 720 
L 720 0 
L 0 0 
z
" style="fill: #ffffff"/>
  </g>
  <g id="axes_1">
   <g id="patch_2">
    <path d="M 230.4 640.8 
C 303.889815 640.8 374.444853 611.575146 426.41 559.61 
C 478.375146 507.644853 507.6 437.089815 507.6 363.6 
C 507.6 290.110185 478.375146 219.555147 426.41 167.59 
C 374.444853 115.624854 303.889815 86.4 230.4 86.4 
L 230.4 363.6 
C 230.4 363.6 230.4 363.6 230.4 363.6 
C 230.4 363.6 230.4 363.6 230.4 363.6 
C 230.4 363.6 230.4 363.6 230.4 363.6 
C 230.4 363.6 230.4 363.6 230.4 363.6 
z
" style="fill: #ffffff"/>
   </g>
   <g id="matplotlib.axis_1">
    <g id="xtick_1">
     <g id="line2d_1">
      <path d="M 230.4 363.6 
L 230.4 86.4 
" clip-path="url(#p04151e93f5)" style="fill: none; stroke-dasharray: 0.8,1.32; stroke-dashoffset: 0; stroke: #b0b0b0; stroke-width: 0.8"/>
     </g>
     <g id="text_1">
      <!-- 0° -->
      <g transform="translate(224.71875 75.159375) scale(0.1 -0.1)">
       <defs>
        <path id="DejaVuSans-30" d="M 2034 4250 
Q 1547 4250 1301 3770 
Q 1056 3291 1056 2328 
Q 1056 1369 1301 889 
Q 1547 409 2034 409 
Q 2525 409 2770 889 
Q 3016 1369 3016 2328 
Q 3016 3291 2770 3770 
Q 2525 4250 2034 4250 
z
M 2034 4750 
Q 2819 4750 3233 4129 
Q 3647 3509 3647 2328 
Q 3647 1150 3233 529 
Q 2819 -91 2034 -91 
Q 1250 -91 836 529 
Q 422 1150 422 2328 
Q 422 3509 836 4129 
Q 1250 4750 2034 4750 
z
" transform="scale(0.015625)"/>
        <path id="DejaVuSans-b0" d="M 1600 4347 
Q 1350 4347 1178 4173 
Q 1006 4000 1006 3750 
Q 1006 3503 1178 3333 
Q 1350 3163 1600 3163 
Q 1850 3163 2022 3333 
Q 2194 3503 2194 3750 
Q 2194 3997 2020 4172 
Q 1847 4347 1600 4347 
z
M 1600 4750 
Q 1800 4750 1984 4673 
Q 2169 4597 2303 4453 
Q 2447 4313 2519 4134 
Q 2591 3956 2591 3750 
Q 2591 3338 2302 3052 
Q 2013 2766 1594 2766 
Q 1172 2766 890 3047 
Q 609 3328 609 3750 
Q 609 4169 896 4459 
Q 1184 4750 1600 4750 
z
" transform="scale(0.015625)"/>
       </defs>
       <use xlink:href="#DejaVuSans-30"/>
       <use xlink:href="#DejaVuSans-b0" transform="translate(63.623047 0)"/>
      </g>
     </g>
    </g>
    <g id="xtick_2">
     <g id="line2d_2">
      <path d="M 230.4 363.6 
L 426.41 167.59 
" clip-path="url(#p04151e93f5)" style="fill: none; stroke-dasharray: 0.8,1.32; stroke-dashoffset: 0; stroke: #b0b0b0; stroke-width: 0.8"/>
     </g>
     <g id="text_2">
      <!-- 45° -->
      <g transform="translate(427.446995 160.44988) scale(0.1 -0.1)">
       <defs>
        <path id="DejaVuSans-34" d="M 2419 4116 
L 825 1625 
L 2419 1625 
L 2419 4116 
z
M 2253 4666 
L 3047 4666 
L 3047 1625 
L 3713 1625 
L 3713 1100 
L 3047 1100 
L 3047 0 
L 2419 0 
L 2419 1100 
L 313 1100 
L 313 1709 
L 2253 4666 
z
" transform="scale(0.015625)"/>
        <path id="DejaVuSans-35" d="M 691 4666 
L 3169 4666 
L 3169 4134 
L 1269 4134 
L 1269 2991 
Q 1406 3038 1543 3061 
Q 1681 3084 1819 3084 
Q 2600 3084 3056 2656 
Q 3513 2228 3513 1497 
Q 3513 744 3044 326 
Q 2575 -91 1722 -91 
Q 1428 -91 1123 -41 
Q 819 9 494 109 
L 494 744 
Q 775 591 1075 516 
Q 1375 441 1709 441 
Q 2250 441 2565 725 
Q 2881 1009 2881 1497 
Q 2881 1984 2565 2268 
Q 2250 2553 1709 2553 
Q 1456 2553 1204 2497 
Q 953 2441 691 2322 
L 691 4666 
z
" transform="scale(0.015625)"/>
       </defs>
       <use xlink:href="#DejaVuSans-34"/>
       <use xlink:href="#DejaVuSans-35" transform="translate(63.623047 0)"/>
       <use xlink:href="#DejaVuSans-b0" transform="translate(127.246094 0)"/>
      </g>
     </g>
    </g>
    <g id="xtick_3">
     <g id="line2d_3">
      <path d="M 230.4 363.6 
L 448.836581 192.938639 
" clip-path="url(#p04151e93f5)" style="fill: none; stroke-dasharray: 0.8,1.32; stroke-dashoffset: 0; stroke: #b0b0b0; stroke-width: 0.8"/>
     </g>
     <g id="text_3">
      <!-- 52° -->
      <g transform="translate(451.006231 187.078753) scale(0.1 -0.1)">
       <defs>
        <path id="DejaVuSans-32" d="M 1228 531 
L 3431 531 
L 3431 0 
L 469 0 
L 469 531 
Q 828 903 1448 1529 
Q 2069 2156 2228 2338 
Q 2531 2678 2651 2914 
Q 2772 3150 2772 3378 
Q 2772 3750 2511 3984 
Q 2250 4219 1831 4219 
Q 1534 4219 1204 4116 
Q 875 4013 500 3803 
L 500 4441 
Q 881 4594 1212 4672 
Q 1544 4750 1819 4750 
Q 2544 4750 2975 4387 
Q 3406 4025 3406 3419 
Q 3406 3131 3298 2873 
Q 3191 2616 2906 2266 
Q 2828 2175 2409 1742 
Q 1991 1309 1228 531 
z
" transform="scale(0.015625)"/>
       </defs>
       <use xlink:href="#DejaVuSans-35"/>
       <use xlink:href="#DejaVuSans-32" transform="translate(63.623047 0)"/>
       <use xlink:href="#DejaVuSans-b0" transform="translate(127.246094 0)"/>
      </g>
     </g>
    </g>
    <g id="xtick_4">
     <g id="line2d_4">
      <path d="M 230.4 363.6 
L 470.462242 225 
" clip-path="url(#p04151e93f5)" style="fill: none; stroke-dasharray: 0.8,1.32; stroke-dashoffset: 0; stroke: #b0b0b0; stroke-width: 0.8"/>
     </g>
     <g id="text_4">
      <!-- 60° -->
      <g transform="translate(473.724098 220.759375) scale(0.1 -0.1)">
       <defs>
        <path id="DejaVuSans-36" d="M 2113 2584 
Q 1688 2584 1439 2293 
Q 1191 2003 1191 1497 
Q 1191 994 1439 701 
Q 1688 409 2113 409 
Q 2538 409 2786 701 
Q 3034 994 3034 1497 
Q 3034 2003 2786 2293 
Q 2538 2584 2113 2584 
z
M 3366 4563 
L 3366 3988 
Q 3128 4100 2886 4159 
Q 2644 4219 2406 4219 
Q 1781 4219 1451 3797 
Q 1122 3375 1075 2522 
Q 1259 2794 1537 2939 
Q 1816 3084 2150 3084 
Q 2853 3084 3261 2657 
Q 3669 2231 3669 1497 
Q 3669 778 3244 343 
Q 2819 -91 2113 -91 
Q 1303 -91 875 529 
Q 447 1150 447 2328 
Q 447 3434 972 4092 
Q 1497 4750 2381 4750 
Q 2619 4750 2861 4703 
Q 3103 4656 3366 4563 
z
" transform="scale(0.015625)"/>
       </defs>
       <use xlink:href="#DejaVuSans-36"/>
       <use xlink:href="#DejaVuSans-30" transform="translate(63.623047 0)"/>
       <use xlink:href="#DejaVuSans-b0" transform="translate(127.246094 0)"/>
      </g>
     </g>
    </g>
    <g id="xtick_5">
     <g id="line2d_5">
      <path d="M 230.4 363.6 
L 498.154639 291.855361 
" clip-path="url(#p04151e93f5)" style="fill: none; stroke-dasharray: 0.8,1.32; stroke-dashoffset: 0; stroke: #b0b0b0; stroke-width: 0.8"/>
     </g>
     <g id="text_5">
      <!-- 75° -->
      <g transform="translate(502.815101 290.991269) scale(0.1 -0.1)">
       <defs>
        <path id="DejaVuSans-37" d="M 525 4666 
L 3525 4666 
L 3525 4397 
L 1831 0 
L 1172 0 
L 2766 4134 
L 525 4134 
L 525 4666 
z
" transform="scale(0.015625)"/>
       </defs>
       <use xlink:href="#DejaVuSans-37"/>
       <use xlink:href="#DejaVuSans-35" transform="translate(63.623047 0)"/>
       <use xlink:href="#DejaVuSans-b0" transform="translate(127.246094 0)"/>
      </g>
     </g>
    </g>
    <g id="xtick_6">
     <g id="line2d_6">
      <path d="M 230.4 363.6 
L 507.6 363.6 
" clip-path="url(#p04151e93f5)" style="fill: none; stroke-dasharray: 0.8,1.32; stroke-dashoffset: 0; stroke: #b0b0b0; stroke-width: 0.8"/>
     </g>
     <g id="text_6">
      <!-- 90° -->
      <g transform="translate(512.7375 366.359375) scale(0.1 -0.1)">
       <defs>
        <path id="DejaVuSans-39" d="M 703 97 
L 703 672 
Q 941 559 1184 500 
Q 1428 441 1663 441 
Q 2288 441 2617 861 
Q 2947 1281 2994 2138 
Q 2813 1869 2534 1725 
Q 2256 1581 1919 1581 
Q 1219 1581 811 2004 
Q 403 2428 403 3163 
Q 403 3881 828 4315 
Q 1253 4750 1959 4750 
Q 2769 4750 3195 4129 
Q 3622 3509 3622 2328 
Q 3622 1225 3098 567 
Q 2575 -91 1691 -91 
Q 1453 -91 1209 -44 
Q 966 3 703 97 
z
M 1959 2075 
Q 2384 2075 2632 2365 
Q 2881 2656 2881 3163 
Q 2881 3666 2632 3958 
Q 2384 4250 1959 4250 
Q 1534 4250 1286 3958 
Q 1038 3666 1038 3163 
Q 1038 2656 1286 2365 
Q 1534 2075 1959 2075 
z
" transform="scale(0.015625)"/>
       </defs>
       <use xlink:href="#DejaVuSans-39"/>
       <use xlink:href="#DejaVuSans-30" transform="translate(63.623047 0)"/>
       <use xlink:href="#DejaVuSans-b0" transform="translate(127.246094 0)"/>
      </g>
     </g>
    </g>
    <g id="xtick_7">
     <g id="line2d_7">
      <path d="M 230.4 363.6 
L 490.882794 458.407984 
" clip-path="url(#p04151e93f5)" style="fill: none; stroke-dasharray: 0.8,1.32; stroke-dashoffset: 0; stroke: #b0b0b0; stroke-width: 0.8"/>
     </g>
     <g id="text_7">
      <!-- 110° -->
      <g transform="translate(491.994741 465.955641) scale(0.1 -0.1)">
       <defs>
        <path id="DejaVuSans-31" d="M 794 531 
L 1825 531 
L 1825 4091 
L 703 3866 
L 703 4441 
L 1819 4666 
L 2450 4666 
L 2450 531 
L 3481 531 
L 3481 0 
L 794 0 
L 794 531 
z
" transform="scale(0.015625)"/>
       </defs>
       <use xlink:href="#DejaVuSans-31"/>
       <use xlink:href="#DejaVuSans-31" transform="translate(63.623047 0)"/>
       <use xlink:href="#DejaVuSans-30" transform="translate(127.246094 0)"/>
       <use xlink:href="#DejaVuSans-b0" transform="translate(190.869141 0)"/>
      </g>
     </g>
    </g>
    <g id="xtick_8">
     <g id="line2d_8">
      <path d="M 230.4 363.6 
L 470.462242 502.2 
" clip-path="url(#p04151e93f5)" style="fill: none; stroke-dasharray: 0.8,1.32; stroke-dashoffset: 0; stroke: #b0b0b0; stroke-width: 0.8"/>
     </g>
     <g id="text_8">
      <!-- 120° -->
      <g transform="translate(470.542848 511.959375) scale(0.1 -0.1)">
       <use xlink:href="#DejaVuSans-31"/>
       <use xlink:href="#DejaVuSans-32" transform="translate(63.623047 0)"/>
       <use xlink:href="#DejaVuSans-30" transform="translate(127.246094 0)"/>
       <use xlink:href="#DejaVuSans-b0" transform="translate(190.869141 0)"/>
      </g>
     </g>
    </g>
    <g id="xtick_9">
     <g id="line2d_9">
      <path d="M 230.4 363.6 
L 426.41 559.61 
" clip-path="url(#p04151e93f5)" style="fill: none; stroke-dasharray: 0.8,1.32; stroke-dashoffset: 0; stroke: #b0b0b0; stroke-width: 0.8"/>
     </g>
     <g id="text_9">
      <!-- 135° -->
      <g transform="translate(424.265745 572.26887) scale(0.1 -0.1)">
       <defs>
        <path id="DejaVuSans-33" d="M 2597 2516 
Q 3050 2419 3304 2112 
Q 3559 1806 3559 1356 
Q 3559 666 3084 287 
Q 2609 -91 1734 -91 
Q 1441 -91 1130 -33 
Q 819 25 488 141 
L 488 750 
Q 750 597 1062 519 
Q 1375 441 1716 441 
Q 2309 441 2620 675 
Q 2931 909 2931 1356 
Q 2931 1769 2642 2001 
Q 2353 2234 1838 2234 
L 1294 2234 
L 1294 2753 
L 1863 2753 
Q 2328 2753 2575 2939 
Q 2822 3125 2822 3475 
Q 2822 3834 2567 4026 
Q 2313 4219 1838 4219 
Q 1578 4219 1281 4162 
Q 984 4106 628 3988 
L 628 4550 
Q 988 4650 1302 4700 
Q 1616 4750 1894 4750 
Q 2613 4750 3031 4423 
Q 3450 4097 3450 3541 
Q 3450 3153 3228 2886 
Q 3006 2619 2597 2516 
z
" transform="scale(0.015625)"/>
       </defs>
       <use xlink:href="#DejaVuSans-31"/>
       <use xlink:href="#DejaVuSans-33" transform="translate(63.623047 0)"/>
       <use xlink:href="#DejaVuSans-35" transform="translate(127.246094 0)"/>
       <use xlink:href="#DejaVuSans-b0" transform="translate(190.869141 0)"/>
      </g>
     </g>
    </g>
    <g id="xtick_10">
     <g id="line2d_10">
      <path d="M 230.4 363.6 
L 369 603.662242 
" clip-path="url(#p04151e93f5)" style="fill: none; stroke-dasharray: 0.8,1.32; stroke-dashoffset: 0; stroke: #b0b0b0; stroke-width: 0.8"/>
     </g>
     <g id="text_10">
      <!-- 150° -->
      <g transform="translate(363.95625 618.545973) scale(0.1 -0.1)">
       <use xlink:href="#DejaVuSans-31"/>
       <use xlink:href="#DejaVuSans-35" transform="translate(63.623047 0)"/>
       <use xlink:href="#DejaVuSans-30" transform="translate(127.246094 0)"/>
       <use xlink:href="#DejaVuSans-b0" transform="translate(190.869141 0)"/>
      </g>
     </g>
    </g>
    <g id="xtick_11">
     <g id="line2d_11">
      <path d="M 230.4 363.6 
L 302.144639 631.354639 
" clip-path="url(#p04151e93f5)" style="fill: none; stroke-dasharray: 0.8,1.32; stroke-dashoffset: 0; stroke: #b0b0b0; stroke-width: 0.8"/>
     </g>
     <g id="text_11">
      <!-- 165° -->
      <g transform="translate(293.724356 647.636976) scale(0.1 -0.1)">
       <use xlink:href="#DejaVuSans-31"/>
       <use xlink:href="#DejaVuSans-36" transform="translate(63.623047 0)"/>
       <use xlink:href="#DejaVuSans-35" transform="translate(127.246094 0)"/>
       <use xlink:href="#DejaVuSans-b0" transform="translate(190.869141 0)"/>
      </g>
     </g>
    </g>
    <g id="xtick_12">
     <g id="line2d_12">
      <path d="M 230.4 363.6 
L 230.4 640.8 
" clip-path="url(#p04151e93f5)" style="fill: none; stroke-dasharray: 0.8,1.32; stroke-dashoffset: 0; stroke: #b0b0b0; stroke-width: 0.8"/>
     </g>
     <g id="text_12">
      <!-- 180° -->
      <g transform="translate(218.35625 657.559375) scale(0.1 -0.1)">
       <defs>
        <path id="DejaVuSans-38" d="M 2034 2216 
Q 1584 2216 1326 1975 
Q 1069 1734 1069 1313 
Q 1069 891 1326 650 
Q 1584 409 2034 409 
Q 2484 409 2743 651 
Q 3003 894 3003 1313 
Q 3003 1734 2745 1975 
Q 2488 2216 2034 2216 
z
M 1403 2484 
Q 997 2584 770 2862 
Q 544 3141 544 3541 
Q 544 4100 942 4425 
Q 1341 4750 2034 4750 
Q 2731 4750 3128 4425 
Q 3525 4100 3525 3541 
Q 3525 3141 3298 2862 
Q 3072 2584 2669 2484 
Q 3125 2378 3379 2068 
Q 3634 1759 3634 1313 
Q 3634 634 3220 271 
Q 2806 -91 2034 -91 
Q 1263 -91 848 271 
Q 434 634 434 1313 
Q 434 1759 690 2068 
Q 947 2378 1403 2484 
z
M 1172 3481 
Q 1172 3119 1398 2916 
Q 1625 2713 2034 2713 
Q 2441 2713 2670 2916 
Q 2900 3119 2900 3481 
Q 2900 3844 2670 4047 
Q 2441 4250 2034 4250 
Q 1625 4250 1398 4047 
Q 1172 3844 1172 3481 
z
" transform="scale(0.015625)"/>
       </defs>
       <use xlink:href="#DejaVuSans-31"/>
       <use xlink:href="#DejaVuSans-38" transform="translate(63.623047 0)"/>
       <use xlink:href="#DejaVuSans-30" transform="translate(127.246094 0)"/>
       <use xlink:href="#DejaVuSans-b0" transform="translate(190.869141 0)"/>
      </g>
     </g>
    </g>
   </g>
   <g id="matplotlib.axis_2">
    <g id="ytick_1">
     <g id="line2d_13">
      <path d="M 230.4 308.16 
C 245.097963 308.16 259.208971 314.004971 269.602 324.398 
C 279.995029 334.791029 285.84 348.902037 285.84 363.6 
C 285.84 378.297963 279.995029 392.408971 269.602 402.802 
C 259.208971 413.195029 245.097963 419.04 230.4 419.04 
" clip-path="url(#p04151e93f5)" style="fill: none; stroke-dasharray: 0.8,1.32; stroke-dashoffset: 0; stroke: #b0b0b0; stroke-width: 0.8"/>
     </g>
     <g id="text_13">
      <!-- 2 kts -->
      <g transform="translate(198.939062 310.919375) scale(0.1 -0.1)">
       <defs>
        <path id="DejaVuSans-20" transform="scale(0.015625)"/>
        <path id="DejaVuSans-6b" d="M 581 4863 
L 1159 4863 
L 1159 1991 
L 2875 3500 
L 3609 3500 
L 1753 1863 
L 3688 0 
L 2938 0 
L 1159 1709 
L 1159 0 
L 581 0 
L 581 4863 
z
" transform="scale(0.015625)"/>
        <path id="DejaVuSans-74" d="M 1172 4494 
L 1172 3500 
L 2356 3500 
L 2356 3053 
L 1172 3053 
L 1172 1153 
Q 1172 725 1289 603 
Q 1406 481 1766 481 
L 2356 481 
L 2356 0 
L 1766 0 
Q 1100 0 847 248 
Q 594 497 594 1153 
L 594 3053 
L 172 3053 
L 172 3500 
L 594 3500 
L 594 4494 
L 1172 4494 
z
" transform="scale(0.015625)"/>
        <path id="DejaVuSans-73" d="M 2834 3397 
L 2834 2853 
Q 2591 2978 2328 3040 
Q 2066 3103 1784 3103 
Q 1356 3103 1142 2972 
Q 928 2841 928 2578 
Q 928 2378 1081 2264 
Q 1234 2150 1697 2047 
L 1894 2003 
Q 2506 1872 2764 1633 
Q 3022 1394 3022 966 
Q 3022 478 2636 193 
Q 2250 -91 1575 -91 
Q 1294 -91 989 -36 
Q 684 19 347 128 
L 347 722 
Q 666 556 975 473 
Q 1284 391 1588 391 
Q 1994 391 2212 530 
Q 2431 669 2431 922 
Q 2431 1156 2273 1281 
Q 2116 1406 1581 1522 
L 1381 1569 
Q 847 1681 609 1914 
Q 372 2147 372 2553 
Q 372 3047 722 3315 
Q 1072 3584 1716 3584 
Q 2034 3584 2315 3537 
Q 2597 3491 2834 3397 
z
" transform="scale(0.015625)"/>
       </defs>
       <use xlink:href="#DejaVuSans-32"/>
       <use xlink:href="#DejaVuSans-20" transform="translate(63.623047 0)"/>
       <use xlink:href="#DejaVuSans-6b" transform="translate(95.410156 0)"/>
       <use xlink:href="#DejaVuSans-74" transform="translate(153.320312 0)"/>
       <use xlink:href="#DejaVuSans-73" transform="translate(192.529297 0)"/>
      </g>
     </g>
    </g>
    <g id="ytick_2">
     <g id="line2d_14">
      <path d="M 230.4 252.72 
C 259.795926 252.72 288.017941 264.409941 308.804 285.196 
C 329.590059 305.982059 341.28 334.204074 341.28 363.6 
C 341.28 392.995926 329.590059 421.217941 308.804 442.004 
C 288.017941 462.790059 259.795926 474.48 230.4 474.48 
" clip-path="url(#p04151e93f5)" style="fill: none; stroke-dasharray: 0.8,1.32; stroke-dashoffset: 0; stroke: #b0b0b0; stroke-width: 0.8"/>
     </g>
     <g id="text_14">
      <!-- 4 kts -->
      <g transform="translate(198.939062 255.479375) scale(0.1 -0.1)">
       <use xlink:href="#DejaVuSans-34"/>
       <use xlink:href="#DejaVuSans-20" transform="translate(63.623047 0)"/>
       <use xlink:href="#DejaVuSans-6b" transform="translate(95.410156 0)"/>
       <use xlink:href="#DejaVuSans-74" transform="translate(153.320312 0)"/>
       <use xlink:href="#DejaVuSans-73" transform="translate(192.529297 0)"/>
      </g>
     </g>
    </g>
    <g id="ytick_3">
     <g id="line2d_15">
      <path d="M 230.4 197.28 
C 274.493889 197.28 316.826912 214.814912 348.006 245.994 
C 379.185088 277.173088 396.72 319.506111 396.72 363.6 
C 396.72 407.693889 379.185088 450.026912 348.006 481.206 
C 316.826912 512.385088 274.493889 529.92 230.4 529.92 
" clip-path="url(#p04151e93f5)" style="fill: none; stroke-dasharray: 0.8,1.32; stroke-dashoffset: 0; stroke: #b0b0b0; stroke-width: 0.8"/>
     </g>
     <g id="text_15">
      <!-- 6 kts -->
      <g transform="translate(198.939062 200.039375) scale(0.1 -0.1)">
       <use xlink:href="#DejaVuSans-36"/>
       <use xlink:href="#DejaVuSans-20" transform="translate(63.623047 0)"/>
       <use xlink:href="#DejaVuSans-6b" transform="translate(95.410156 0)"/>
       <use xlink:href="#DejaVuSans-74" transform="translate(153.320312 0)"/>
       <use xlink:href="#DejaVuSans-73" transform="translate(192.529297 0)"/>
      </g>
     </g>
    </g>
    <g id="ytick_4">
     <g id="line2d_16">
      <path d="M 230.4 141.84 
C 289.191852 141.84 345.635882 165.219883 387.208 206.792 
C 428.780117 248.364118 452.16 304.808148 452.16 363.6 
C 452.16 422.391852 428.780117 478.835882 387.208 520.408 
C 345.635882 561.980117 289.191852 585.36 230.4 585.36 
" clip-path="url(#p04151e93f5)" style="fill: none; stroke-dasharray: 0.8,1.32; stroke-dashoffset: 0; stroke: #b0b0b0; stroke-width: 0.8"/>
     </g>
     <g id="text_16">
      <!-- 8 kts -->
      <g transform="translate(198.939062 144.599375) scale(0.1 -0.1)">
       <use xlink:href="#DejaVuSans-38"/>
       <use xlink:href="#DejaVuSans-20" transform="translate(63.623047 0)"/>
       <use xlink:href="#DejaVuSans-6b" transform="translate(95.410156 0)"/>
       <use xlink:href="#DejaVuSans-74" transform="translate(153.320312 0)"/>
       <use xlink:href="#DejaVuSans-73" transform="translate(192.529297 0)"/>
      </g>
     </g>
    </g>
   </g>
   <g id="line2d_17">
    <path d="M 319.253474 268.316314 
L 343.987022 274.856092 
L 362.434233 287.37 
L 383.020144 322.705556 
L 385.632 363.6 
L 371.060709 414.796311 
L 355.232366 435.672 
L 322.5247 455.7247 
L 298.83231 457.788995 
L 287.507422 458.64271 
L 284.454 457.224274 
" clip-path="url(#p04151e93f5)" style="fill: none; stroke: #1f77b4; stroke-width: 1.5; stroke-linecap: square"/>
   </g>
   <g id="line2d_18">
    <path d="M 330.42276 248.536977 
L 336.267969 250.070502 
L 363.646314 259.49657 
L 384.039835 274.896 
L 404.440515 316.965984 
L 410.58 363.6 
L 399.713816 425.225189 
L 381.639212 450.918 
L 344.0858 477.2858 
L 318.384399 484.700136 
L 303.211963 484.779456 
L 299.7 483.631121 
" clip-path="url(#p04151e93f5)" style="fill: none; stroke: #ff7f0e; stroke-width: 1.5; stroke-linecap: square"/>
   </g>
   <g id="line2d_19">
    <path d="M 337.308435 236.191488 
L 339.515738 238.076703 
L 345.720467 239.93394 
L 374.568143 250.963502 
L 393.642325 269.352 
L 417.828247 313.378752 
L 424.44 363.6 
L 415.342784 430.913668 
L 398.443569 460.62 
L 359.7666 492.9666 
L 331.419125 502.640897 
L 316.061133 506.164065 
L 313.56 507.637345 
L 303.390777 506.852465 
" clip-path="url(#p04151e93f5)" style="fill: none; stroke: #2ca02c; stroke-width: 1.5; stroke-linecap: square"/>
   </g>
   <g id="line2d_20">
    <path d="M 338.55752 230.036586 
L 342.653857 229.821063 
L 344.971525 231.800538 
L 351.391965 233.852003 
L 381.121241 245.843661 
L 398.443569 266.58 
L 423.18334 311.94386 
L 432.756 363.6 
L 425.762096 434.705988 
L 408.046059 466.164 
L 369.5671 502.7671 
L 342.82451 518.339062 
L 326.054931 522.79654 
L 323.262 524.441702 
L 313.45847 526.611426 
L 295.819797 525.51968 
" clip-path="url(#p04151e93f5)" style="fill: none; stroke: #d62728; stroke-width: 1.5; stroke-linecap: square"/>
   </g>
   <g id="line2d_21">
    <path d="M 337.916657 225.984954 
L 342.046472 225.728089 
L 344.435664 227.697587 
L 346.79012 229.708483 
L 355.172964 229.797378 
L 383.305607 244.137047 
L 403.244814 263.808 
L 428.538433 310.508967 
L 441.072 363.6 
L 433.57658 437.550227 
L 417.648549 471.708 
L 377.4075 510.6075 
L 349.341873 527.309443 
L 331.765674 532.300811 
L 328.806 534.044192 
L 318.492317 536.490906 
L 302.050254 540.940601 
L 255.476209 542.026501 
" clip-path="url(#p04151e93f5)" style="fill: none; stroke: #9467bd; stroke-width: 1.5; stroke-linecap: square"/>
   </g>
   <g id="line2d_22">
    <path d="M 337.916657 225.984954 
L 342.046472 225.728089 
L 344.435664 227.697587 
L 346.79012 229.708483 
L 355.172964 229.797378 
L 383.305607 244.137047 
L 403.244814 263.808 
L 433.893526 309.074074 
L 446.616 363.6 
L 441.391064 440.394467 
L 427.251038 477.252 
L 385.2479 518.4479 
L 355.859235 536.279823 
L 337.476416 541.805082 
L 334.35 543.646681 
L 323.526163 546.370386 
L 307.242301 553.79137 
L 257.790936 558.496639 
L 237.171898 557.521796 
" clip-path="url(#p04151e93f5)" style="fill: none; stroke: #8c564b; stroke-width: 1.5; stroke-linecap: square"/>
   </g>
   <g id="line2d_23">
    <path d="M 342.046472 225.728089 
L 346.217472 225.574112 
L 348.608716 227.616428 
L 355.172964 229.797378 
L 385.489972 242.430434 
L 405.645437 262.422 
L 436.571072 308.356628 
L 454.932 363.6 
L 451.810375 444.186786 
L 441.654773 485.568 
L 402.8888 536.0888 
L 368.893961 554.220584 
L 348.8979 560.813624 
L 345.438 562.851661 
L 333.593857 566.129347 
L 314.511168 571.782445 
L 260.491451 577.711801 
L 237.849088 576.913976 
L 234.125111 577.011491 
" clip-path="url(#p04151e93f5)" style="fill: none; stroke: #e377c2; stroke-width: 1.5; stroke-linecap: square"/>
   </g>
   <g id="line2d_24">
    <path d="M 344.435664 227.697587 
L 348.608716 227.616428 
L 355.172964 229.797378 
L 385.489972 242.430434 
L 405.645437 262.422 
L 439.248618 307.639181 
L 460.476 363.6 
L 457.020031 446.082946 
L 453.657885 492.498 
L 424.4499 557.6499 
L 385.187368 576.646535 
L 361.74707 582.198234 
L 357.912 584.457263 
L 344.920012 588.358178 
L 323.856853 594.913828 
L 263.577754 599.671985 
L 238.526278 596.306155 
" clip-path="url(#p04151e93f5)" style="fill: none; stroke: #7f7f7f; stroke-width: 1.5; stroke-linecap: square"/>
   </g>
   <g id="patch_3">
    <path d="M 230.4 640.8 
C 303.889815 640.8 374.444853 611.575146 426.41 559.61 
C 478.375146 507.644853 507.6 437.089815 507.6 363.6 
C 507.6 290.110185 478.375146 219.555147 426.41 167.59 
C 374.444853 115.624854 303.889815 86.4 230.4 86.4 
" style="fill: none; stroke: #000000; stroke-width: 0.8; stroke-linejoin: miter; stroke-linecap: square"/>
   </g>
   <g id="patch_4">
    <path d="M 230.4 363.6 
L 230.4 86.4 
" style="fill: none; stroke: #000000; stroke-width: 0.8; stroke-linejoin: miter; stroke-linecap: square"/>
   </g>
   <g id="patch_5">
    <path d="M 230.4 363.6 
L 230.4 640.8 
" style="fill: none; stroke: #000000; stroke-width: 0.8; stroke-linejoin: miter; stroke-linecap: square"/>
   </g>
   <g id="legend_1">
    <g id="patch_6">
     <path d="M 576.376562 635.8 
L 639.2 635.8 
Q 641.2 635.8 641.2 633.8 
L 641.2 502.696875 
Q 641.2 500.696875 639.2 500.696875 
L 576.376562 500.696875 
Q 574.376562 500.696875 574.376562 502.696875 
L 574.376562 633.8 
Q 574.376562 635.8 576.376562 635.8 
z
" style="fill: #ffffff; opacity: 0.8; stroke: #cccccc; stroke-linejoin: miter"/>
    </g>
    <g id="text_17">
     <!-- TWS -->
     <g transform="translate(596.616406 512.295313) scale(0.1 -0.1)">
      <defs>
       <path id="DejaVuSans-54" d="M -19 4666 
L 3928 4666 
L 3928 4134 
L 2272 4134 
L 2272 0 
L 1638 0 
L 1638 4134 
L -19 4134 
L -19 4666 
z
" transform="scale(0.015625)"/>
       <path id="DejaVuSans-57" d="M 213 4666 
L 850 4666 
L 1831 722 
L 2809 4666 
L 3519 4666 
L 4500 722 
L 5478 4666 
L 6119 4666 
L 4947 0 
L 4153 0 
L 3169 4050 
L 2175 0 
L 1381 0 
L 213 4666 
z
" transform="scale(0.015625)"/>
       <path id="DejaVuSans-53" d="M 3425 4513 
L 3425 3897 
Q 3066 4069 2747 4153 
Q 2428 4238 2131 4238 
Q 1616 4238 1336 4038 
Q 1056 3838 1056 3469 
Q 1056 3159 1242 3001 
Q 1428 2844 1947 2747 
L 2328 2669 
Q 3034 2534 3370 2195 
Q 3706 1856 3706 1288 
Q 3706 609 3251 259 
Q 2797 -91 1919 -91 
Q 1588 -91 1214 -16 
Q 841 59 441 206 
L 441 856 
Q 825 641 1194 531 
Q 1563 422 1919 422 
Q 2459 422 2753 634 
Q 3047 847 3047 1241 
Q 3047 1584 2836 1778 
Q 2625 1972 2144 2069 
L 1759 2144 
Q 1053 2284 737 2584 
Q 422 2884 422 3419 
Q 422 4038 858 4394 
Q 1294 4750 2059 4750 
Q 2388 4750 2728 4690 
Q 3069 4631 3425 4513 
z
" transform="scale(0.015625)"/>
      </defs>
      <use xlink:href="#DejaVuSans-54"/>
      <use xlink:href="#DejaVuSans-57" transform="translate(61.083984 0)"/>
      <use xlink:href="#DejaVuSans-53" transform="translate(159.960938 0)"/>
     </g>
    </g>
    <g id="line2d_25">
     <path d="M 578.376562 523.473438 
L 588.376562 523.473438 
L 598.376562 523.473438 
" style="fill: none; stroke: #1f77b4; stroke-width: 1.5; stroke-linecap: square"/>
    </g>
    <g id="text_18">
     <!-- 6 kts -->
     <g transform="translate(606.376562 526.973438) scale(0.1 -0.1)">
      <use xlink:href="#DejaVuSans-36"/>
      <use xlink:href="#DejaVuSans-20" transform="translate(63.623047 0)"/>
      <use xlink:href="#DejaVuSans-6b" transform="translate(95.410156 0)"/>
      <use xlink:href="#DejaVuSans-74" transform="translate(153.320312 0)"/>
      <use xlink:href="#DejaVuSans-73" transform="translate(192.529297 0)"/>
     </g>
    </g>
    <g id="line2d_26">
     <path d="M 578.376562 538.151563 
L 588.376562 538.151563 
L 598.376562 538.151563 
" style="fill: none; stroke: #ff7f0e; stroke-width: 1.5; stroke-linecap: square"/>
    </g>
    <g id="text_19">
     <!-- 8 kts -->
     <g transform="translate(606.376562 541.651563) scale(0.1 -0.1)">
      <use xlink:href="#DejaVuSans-38"/>
      <use xlink:href="#DejaVuSans-20" transform="translate(63.623047 0)"/>
      <use xlink:href="#DejaVuSans-6b" transform="translate(95.410156 0)"/>
      <use xlink:href="#DejaVuSans-74" transform="translate(153.320312 0)"/>
      <use xlink:href="#DejaVuSans-73" transform="translate(192.529297 0)"/>
     </g>
    </g>
    <g id="line2d_27">
     <path d="M 578.376562 552.829688 
L 588.376562 552.829688 
L 598.376562 552.829688 
" style="fill: none; stroke: #2ca02c; stroke-width: 1.5; stroke-linecap: square"/>
    </g>
    <g id="text_20">
     <!-- 10 kts -->
     <g transform="translate(606.376562 556.329688) scale(0.1 -0.1)">
      <use xlink:href="#DejaVuSans-31"/>
      <use xlink:href="#DejaVuSans-30" transform="translate(63.623047 0)"/>
      <use xlink:href="#DejaVuSans-20" transform="translate(127.246094 0)"/>
      <use xlink:href="#DejaVuSans-6b" transform="translate(159.033203 0)"/>
      <use xlink:href="#DejaVuSans-74" transform="translate(216.943359 0)"/>
      <use xlink:href="#DejaVuSans-73" transform="translate(256.152344 0)"/>
     </g>
    </g>
    <g id="line2d_28">
     <path d="M 578.376562 567.507812 
L 588.376562 567.507812 
L 598.376562 567.507812 
" style="fill: none; stroke: #d62728; stroke-width: 1.5; stroke-linecap: square"/>
    </g>
    <g id="text_21">
     <!-- 12 kts -->
     <g transform="translate(606.376562 571.007812) scale(0.1 -0.1)">
      <use xlink:href="#DejaVuSans-31"/>
      <use xlink:href="#DejaVuSans-32" transform="translate(63.623047 0)"/>
      <use xlink:href="#DejaVuSans-20" transform="translate(127.246094 0)"/>
      <use xlink:href="#DejaVuSans-6b" transform="translate(159.033203 0)"/>
      <use xlink:href="#DejaVuSans-74" transform="translate(216.943359 0)"/>
      <use xlink:href="#DejaVuSans-73" transform="translate(256.152344 0)"/>
     </g>
    </g>
    <g id="line2d_29">
     <path d="M 578.376562 582.185938 
L 588.376562 582.185938 
L 598.376562 582.185938 
" style="fill: none; stroke: #9467bd; stroke-width: 1.5; stroke-linecap: square"/>
    </g>
    <g id="text_22">
     <!-- 14 kts -->
     <g transform="translate(606.376562 585.685938) scale(0.1 -0.1)">
      <use xlink:href="#DejaVuSans-31"/>
      <use xlink:href="#DejaVuSans-34" transform="translate(63.623047 0)"/>
      <use xlink:href="#DejaVuSans-20" transform="translate(127.246094 0)"/>
      <use xlink:href="#DejaVuSans-6b" transform="translate(159.033203 0)"/>
      <use xlink:href="#DejaVuSans-74" transform="translate(216.943359 0)"/>
      <use xlink:href="#DejaVuSans-73" transform="translate(256.152344 0)"/>
     </g>
    </g>
    <g id="line2d_30">
     <path d="M 578.376562 596.864063 
L 588.376562 596.864063 
L 598.376562 596.864063 
" style="fill: none; stroke: #8c564b; stroke-width: 1.5; stroke-linecap: square"/>
    </g>
    <g id="text_23">
     <!-- 16 kts -->
     <g transform="translate(606.376562 600.364063) scale(0.1 -0.1)">
      <use xlink:href="#DejaVuSans-31"/>
      <use xlink:href="#DejaVuSans-36" transform="translate(63.623047 0)"/>
      <use xlink:href="#DejaVuSans-20" transform="translate(127.246094 0)"/>
      <use xlink:href="#DejaVuSans-6b" transform="translate(159.033203 0)"/>
      <use xlink:href="#DejaVuSans-74" transform="translate(216.943359 0)"/>
      <use xlink:href="#DejaVuSans-73" transform="translate(256.152344 0)"/>
     </g>
    </g>
    <g id="line2d_31">
     <path d="M 578.376562 611.542188 
L 588.376562 611.542188 
L 598.376562 611.542188 
" style="fill: none; stroke: #e377c2; stroke-width: 1.5; stroke-linecap: square"/>
    </g>
    <g id="text_24">
     <!-- 20 kts -->
     <g transform="translate(606.376562 615.042188) scale(0.1 -0.1)">
      <use xlink:href="#DejaVuSans-32"/>
      <use xlink:href="#DejaVuSans-30" transform="translate(63.623047 0)"/>
      <use xlink:href="#DejaVuSans-20" transform="translate(127.246094 0)"/>
      <use xlink:href="#DejaVuSans-6b" transform="translate(159.033203 0)"/>
      <use xlink:href="#DejaVuSans-74" transform="translate(216.943359 0)"/>
      <use xlink:href="#DejaVuSans-73" transform="translate(256.152344 0)"/>
     </g>
    </g>
    <g id="line2d_32">
     <path d="M 578.376562 626.220313 
L 588.376562 626.220313 
L 598.376562 626.220313 
" style="fill: none; stroke: #7f7f7f; stroke-width: 1.5; stroke-linecap: square"/>
    </g>
    <g id="text_25">
     <!-- 24 kts -->
     <g transform="translate(606.376562 629.720313) scale(0.1 -0.1)">
      <use xlink:href="#DejaVuSans-32"/>
      <use xlink:href="#DejaVuSans-34" transform="translate(63.623047 0)"/>
      <use xlink:href="#DejaVuSans-20" transform="translate(127.246094 0)"/>
      <use xlink:href="#DejaVuSans-6b" transform="translate(159.033203 0)"/>
      <use xlink:href="#DejaVuSans-74" transform="translate(216.943359 0)"/>
      <use xlink:href="#DejaVuSans-73" transform="translate(256.152344 0)"/>
     </g>
    </g>
   </g>
  </g>
 </g>
 <defs>
  <clipPath id="p04151e93f5">
   <path d="M 230.4 640.8 
C 303.889815 640.8 374.444853 611.575146 426.41 559.61 
C 478.375146 507.644853 507.6 437.089815 507.6 363.6 
C 507.6 290.110185 478.375146 219.555147 426.41 167.59 
C 374.444853 115.624854 303.889815 86.4 230.4 86.4 
L 230.4 363.6 
C 230.4 363.6 230.4 363.6 230.4 363.6 
C 230.4 363.6 230.4 363.6 230.4 363.6 
C 230.4 363.6 230.4 363.6 230.4 363.6 
C 230.4 363.6 230.4 363.6 230.4 363.6 
z
"/>
  </clipPath>
 </defs>
</svg>
